<svg xmlns="http://www.w3.org/2000/svg" width="421.69999999999993" height="35" viewBox="0 0 421.69999999999993 35"><rect class="svg__rect" x="0" y="0" width="161.29" height="35" fill="#96DC64"/><rect class="svg__rect" x="159.29" y="0" width="262.40999999999997" height="35" fill="#3C9AD5"/><path class="svg__text" d="M13.78 19.42L13.78 19.42L15.27 19.42Q15.27 20.15 15.75 20.55Q16.23 20.95 17.12 20.95L17.12 20.95Q17.90 20.95 18.29 20.63Q18.68 20.32 18.68 19.80L18.68 19.80Q18.68 19.24 18.28 18.94Q17.89 18.63 16.85 18.32Q15.82 18.01 15.21 17.63L15.21 17.63Q14.05 16.90 14.05 15.72L14.05 15.72Q14.05 14.69 14.89 14.02Q15.73 13.35 17.07 13.35L17.07 13.35Q17.96 13.35 18.66 13.68Q19.36 14.01 19.75 14.61Q20.15 15.22 20.15 15.96L20.15 15.96L18.68 15.96Q18.68 15.29 18.26 14.91Q17.84 14.54 17.06 14.54L17.06 14.54Q16.33 14.54 15.93 14.85Q15.53 15.16 15.53 15.71L15.53 15.71Q15.53 16.18 15.96 16.50Q16.40 16.81 17.39 17.10Q18.39 17.40 18.99 17.78Q19.60 18.16 19.88 18.65Q20.16 19.13 20.16 19.79L20.16 19.79Q20.16 20.86 19.34 21.49Q18.52 22.12 17.12 22.12L17.12 22.12Q16.20 22.12 15.42 21.77Q14.64 21.43 14.21 20.83Q13.78 20.22 13.78 19.42ZM26.13 14.66L23.49 14.66L23.49 13.47L30.26 13.47L30.26 14.66L27.60 14.66L27.60 22L26.13 22L26.13 14.66ZM34.80 22L33.25 22L36.48 13.47L37.81 13.47L41.04 22L39.49 22L38.79 20.01L35.49 20.01L34.80 22ZM37.14 15.28L35.90 18.82L38.38 18.82L37.14 15.28ZM48.10 22L44.99 22L44.99 13.47L47.91 13.47Q49.36 13.47 50.12 14.05Q50.87 14.63 50.87 15.78L50.87 15.78Q50.87 16.36 50.56 16.83Q50.24 17.30 49.63 17.56L49.63 17.56Q50.32 17.75 50.70 18.26Q51.08 18.78 51.08 19.51L51.08 19.51Q51.08 20.71 50.31 21.36Q49.54 22 48.10 22L48.10 22ZM46.47 18.15L46.47 20.82L48.12 20.82Q48.82 20.82 49.21 20.47Q49.60 20.13 49.60 19.51L49.60 19.51Q49.60 18.18 48.24 18.15L48.24 18.15L46.47 18.15ZM46.47 14.66L46.47 17.06L47.93 17.06Q48.62 17.06 49.01 16.75Q49.40 16.43 49.40 15.86L49.40 15.86Q49.40 15.23 49.04 14.95Q48.68 14.66 47.91 14.66L47.91 14.66L46.47 14.66ZM60.90 22L55.55 22L55.55 13.47L57.03 13.47L57.03 20.82L60.90 20.82L60.90 22ZM70.61 22L65.03 22L65.03 13.47L70.57 13.47L70.57 14.66L66.51 14.66L66.51 17.02L70.02 17.02L70.02 18.19L66.51 18.19L66.51 20.82L70.61 20.82L70.61 22ZM82.26 22L80.78 22L80.78 13.47L83.78 13.47Q85.26 13.47 86.06 14.13Q86.86 14.79 86.86 16.05L86.86 16.05Q86.86 16.90 86.45 17.48Q86.04 18.06 85.30 18.37L85.30 18.37L87.21 21.92L87.21 22L85.63 22L83.91 18.71L82.26 18.71L82.26 22ZM82.26 14.66L82.26 17.52L83.79 17.52Q84.54 17.52 84.96 17.15Q85.38 16.77 85.38 16.11L85.38 16.11Q85.38 15.43 84.99 15.05Q84.60 14.68 83.83 14.66L83.83 14.66L82.26 14.66ZM96.83 22L91.26 22L91.26 13.47L96.79 13.47L96.79 14.66L92.74 14.66L92.74 17.02L96.24 17.02L96.24 18.19L92.74 18.19L92.74 20.82L96.83 20.82L96.83 22ZM106.39 22L101.03 22L101.03 13.47L102.51 13.47L102.51 20.82L106.39 20.82L106.39 22ZM116.09 22L110.51 22L110.51 13.47L116.05 13.47L116.05 14.66L111.99 14.66L111.99 17.02L115.50 17.02L115.50 18.19L111.99 18.19L111.99 20.82L116.09 20.82L116.09 22ZM121.06 22L119.52 22L122.74 13.47L124.07 13.47L127.30 22L125.76 22L125.06 20.01L121.75 20.01L121.06 22ZM123.41 15.28L122.17 18.82L124.64 18.82L123.41 15.28ZM130.82 19.42L130.82 19.42L132.31 19.42Q132.31 20.15 132.79 20.55Q133.27 20.95 134.16 20.95L134.16 20.95Q134.94 20.95 135.33 20.63Q135.72 20.32 135.72 19.80L135.72 19.80Q135.72 19.24 135.32 18.94Q134.93 18.63 133.89 18.32Q132.86 18.01 132.25 17.63L132.25 17.63Q131.09 16.90 131.09 15.72L131.09 15.72Q131.09 14.69 131.93 14.02Q132.77 13.35 134.11 13.35L134.11 13.35Q135.00 13.35 135.70 13.68Q136.40 14.01 136.80 14.61Q137.19 15.22 137.19 15.96L137.19 15.96L135.72 15.96Q135.72 15.29 135.30 14.91Q134.88 14.54 134.10 14.54L134.10 14.54Q133.37 14.54 132.97 14.85Q132.57 15.16 132.57 15.71L132.57 15.71Q132.57 16.18 133.00 16.50Q133.44 16.81 134.43 17.10Q135.43 17.40 136.03 17.78Q136.64 18.16 136.92 18.65Q137.20 19.13 137.20 19.79L137.20 19.79Q137.20 20.86 136.38 21.49Q135.56 22.12 134.16 22.12L134.16 22.12Q133.24 22.12 132.46 21.77Q131.69 21.43 131.26 20.83Q130.82 20.22 130.82 19.42ZM147.07 22L141.49 22L141.49 13.47L147.03 13.47L147.03 14.66L142.97 14.66L142.97 17.02L146.47 17.02L146.47 18.19L142.97 18.19L142.97 20.82L147.07 20.82L147.07 22Z" fill="#FFFFFF"/><path class="svg__text" d="M175.86 22L173.48 22L173.48 13.60L177.32 13.60Q178.46 13.60 179.30 13.98Q180.14 14.35 180.60 15.06Q181.05 15.76 181.05 16.71L181.05 16.71Q181.05 17.62 180.63 18.30Q180.20 18.98 179.41 19.36L179.41 19.36L181.22 22L178.68 22L177.15 19.77L175.86 19.77L175.86 22ZM175.86 15.47L175.86 17.93L177.18 17.93Q177.91 17.93 178.28 17.61Q178.65 17.29 178.65 16.71L178.65 16.71Q178.65 16.12 178.28 15.79Q177.91 15.47 177.18 15.47L177.18 15.47L175.86 15.47ZM188.22 22L185.84 22L185.84 13.60L189.68 13.60Q190.83 13.60 191.67 13.98Q192.50 14.35 192.96 15.06Q193.42 15.76 193.42 16.71L193.42 16.71Q193.42 17.62 192.99 18.30Q192.56 18.98 191.77 19.36L191.77 19.36L193.58 22L191.04 22L189.51 19.77L188.22 19.77L188.22 22ZM188.22 15.47L188.22 17.93L189.54 17.93Q190.27 17.93 190.64 17.61Q191.01 17.29 191.01 16.71L191.01 16.71Q191.01 16.12 190.64 15.79Q190.27 15.47 189.54 15.47L189.54 15.47L188.22 15.47ZM200.58 22L198.20 22L198.20 13.60L202.05 13.60Q203.18 13.60 204.03 13.98Q204.87 14.35 205.32 15.06Q205.78 15.76 205.78 16.71L205.78 16.71Q205.78 17.66 205.32 18.35Q204.87 19.05 204.03 19.42Q203.18 19.80 202.05 19.80L202.05 19.80L200.58 19.80L200.58 22ZM200.58 15.47L200.58 17.93L201.90 17.93Q202.63 17.93 203.01 17.61Q203.38 17.29 203.38 16.71L203.38 16.71Q203.38 16.12 203.01 15.80Q202.63 15.47 201.90 15.47L201.90 15.47L200.58 15.47ZM212.91 22L210.53 22L210.53 13.60L217.12 13.60L217.12 15.44L212.91 15.44L212.91 17.28L216.62 17.28L216.62 19.12L212.91 19.12L212.91 22ZM228.10 21.24L228.10 21.24L228.88 19.49Q229.45 19.86 230.19 20.09Q230.93 20.32 231.66 20.32L231.66 20.32Q233.02 20.32 233.03 19.64L233.03 19.64Q233.03 19.28 232.64 19.11Q232.25 18.93 231.38 18.74L231.38 18.74Q230.43 18.53 229.80 18.30Q229.16 18.06 228.71 17.55Q228.25 17.03 228.25 16.16L228.25 16.16Q228.25 15.39 228.67 14.77Q229.09 14.15 229.92 13.79Q230.76 13.43 231.97 13.43L231.97 13.43Q232.79 13.43 233.60 13.62Q234.40 13.80 235.02 14.17L235.02 14.17L234.29 15.93Q233.09 15.28 231.95 15.28L231.95 15.28Q231.25 15.28 230.92 15.49Q230.60 15.70 230.60 16.04L230.60 16.04Q230.60 16.37 230.98 16.54Q231.37 16.71 232.22 16.89L232.22 16.89Q233.18 17.10 233.81 17.33Q234.44 17.56 234.90 18.07Q235.36 18.58 235.36 19.46L235.36 19.46Q235.36 20.21 234.95 20.83Q234.53 21.44 233.69 21.80Q232.85 22.17 231.64 22.17L231.64 22.17Q230.62 22.17 229.66 21.92Q228.70 21.67 228.10 21.24ZM241.73 15.48L239.15 15.48L239.15 13.60L246.67 13.60L246.67 15.48L244.11 15.48L244.11 22L241.73 22L241.73 15.48ZM252.46 22L250.04 22L253.75 13.60L256.09 13.60L259.80 22L257.34 22L256.68 20.37L253.12 20.37L252.46 22ZM254.90 15.93L253.82 18.61L255.98 18.61L254.90 15.93ZM268.50 22L263.96 22L263.96 13.60L268.26 13.60Q269.86 13.60 270.71 14.19Q271.55 14.79 271.55 15.79L271.55 15.79Q271.55 16.39 271.25 16.87Q270.95 17.34 270.42 17.62L270.42 17.62Q271.14 17.87 271.54 18.41Q271.95 18.94 271.95 19.70L271.95 19.70Q271.95 20.80 271.06 21.40Q270.18 22 268.50 22L268.50 22ZM266.31 18.58L266.31 20.28L268.31 20.28Q269.55 20.28 269.55 19.43L269.55 19.43Q269.55 18.58 268.31 18.58L268.31 18.58L266.31 18.58ZM266.31 15.31L266.31 16.94L267.94 16.94Q269.14 16.94 269.14 16.12L269.14 16.12Q269.14 15.31 267.94 15.31L267.94 15.31L266.31 15.31ZM283.05 22L276.67 22L276.67 13.60L279.05 13.60L279.05 20.11L283.05 20.11L283.05 22ZM294.22 22L287.47 22L287.47 13.60L294.06 13.60L294.06 15.44L289.83 15.44L289.83 16.85L293.56 16.85L293.56 18.63L289.83 18.63L289.83 20.17L294.22 20.17L294.22 22ZM309.97 22L305.99 22L305.99 13.60L309.97 13.60Q311.35 13.60 312.42 14.12Q313.48 14.63 314.07 15.58Q314.66 16.53 314.66 17.80L314.66 17.80Q314.66 19.07 314.07 20.02Q313.48 20.97 312.42 21.48Q311.35 22 309.97 22L309.97 22ZM308.37 15.50L308.37 20.10L309.87 20.10Q310.95 20.10 311.60 19.49Q312.26 18.88 312.26 17.80L312.26 17.80Q312.26 16.72 311.60 16.11Q310.95 15.50 309.87 15.50L309.87 15.50L308.37 15.50ZM318.96 17.80L318.96 17.80Q318.96 16.55 319.56 15.55Q320.17 14.56 321.23 14.00Q322.29 13.43 323.62 13.43L323.62 13.43Q324.95 13.43 326.02 14.00Q327.08 14.56 327.69 15.55Q328.29 16.55 328.29 17.80L328.29 17.80Q328.29 19.05 327.69 20.04Q327.08 21.04 326.02 21.60Q324.96 22.17 323.62 22.17L323.62 22.17Q322.29 22.17 321.23 21.60Q320.17 21.04 319.56 20.04Q318.96 19.05 318.96 17.80ZM321.36 17.80L321.36 17.80Q321.36 18.51 321.66 19.05Q321.96 19.60 322.48 19.90Q322.99 20.20 323.62 20.20L323.62 20.20Q324.26 20.20 324.78 19.90Q325.29 19.60 325.59 19.05Q325.89 18.51 325.89 17.80L325.89 17.80Q325.89 17.09 325.59 16.54Q325.29 16 324.78 15.70Q324.26 15.40 323.62 15.40L323.62 15.40Q322.99 15.40 322.47 15.70Q321.96 16 321.66 16.54Q321.36 17.09 321.36 17.80ZM335.10 22L332.38 13.60L334.83 13.60L336.51 18.96L338.29 13.60L340.48 13.60L342.17 19.01L343.93 13.60L346.20 13.60L343.48 22L340.93 22L339.33 16.89L337.65 22L335.10 22ZM353.04 22L350.71 22L350.71 13.60L352.67 13.60L356.38 18.07L356.38 13.60L358.70 13.60L358.70 22L356.75 22L353.04 17.52L353.04 22ZM370.25 22L363.87 22L363.87 13.60L366.25 13.60L366.25 20.11L370.25 20.11L370.25 22ZM374.24 17.80L374.24 17.80Q374.24 16.55 374.85 15.55Q375.45 14.56 376.51 14.00Q377.58 13.43 378.91 13.43L378.91 13.43Q380.24 13.43 381.30 14.00Q382.36 14.56 382.97 15.55Q383.58 16.55 383.58 17.80L383.58 17.80Q383.58 19.05 382.97 20.04Q382.36 21.04 381.30 21.60Q380.24 22.17 378.91 22.17L378.91 22.17Q377.58 22.17 376.51 21.60Q375.45 21.04 374.85 20.04Q374.24 19.05 374.24 17.80ZM376.64 17.80L376.64 17.80Q376.64 18.51 376.94 19.05Q377.24 19.60 377.76 19.90Q378.27 20.20 378.91 20.20L378.91 20.20Q379.55 20.20 380.06 19.90Q380.58 19.60 380.88 19.05Q381.18 18.51 381.18 17.80L381.18 17.80Q381.18 17.09 380.88 16.54Q380.58 16 380.06 15.70Q379.55 15.40 378.91 15.40L378.91 15.40Q378.27 15.40 377.76 15.70Q377.24 16 376.94 16.54Q376.64 17.09 376.64 17.80ZM389.72 22L387.30 22L391.01 13.60L393.35 13.60L397.07 22L394.60 22L393.94 20.37L390.39 20.37L389.72 22ZM392.16 15.93L391.08 18.61L393.24 18.61L392.16 15.93ZM405.19 22L401.22 22L401.22 13.60L405.19 13.60Q406.58 13.60 407.64 14.12Q408.71 14.63 409.30 15.58Q409.89 16.53 409.89 17.80L409.89 17.80Q409.89 19.07 409.30 20.02Q408.71 20.97 407.64 21.48Q406.58 22 405.19 22L405.19 22ZM403.60 15.50L403.60 20.10L405.10 20.10Q406.18 20.10 406.83 19.49Q407.48 18.88 407.48 17.80L407.48 17.80Q407.48 16.72 406.83 16.11Q406.18 15.50 405.10 15.50L405.10 15.50L403.60 15.50Z" fill="#FFFFFF" x="172.29"/></svg>